<?xml version="1.0" encoding="iso-8859-1"?>
<!-- Generator: Adobe Illustrator 19.0.0, SVG Export Plug-In . SVG Version: 6.00 Build 0)  -->
<svg xmlns="http://www.w3.org/2000/svg" xmlns:xlink="http://www.w3.org/1999/xlink" version="1.1" id="Capa_1" x="0px" y="0px" viewBox="0 0 512 512" style="enable-background:new 0 0 512 512;" xml:space="preserve" width="512px" height="512px">
<g>
	<g>
		<path d="M421,146V88.787L332.213,0H91v146H0.508v220H91v146h30V366h30v56h30v-56h30v146h30V366h30v56h30v-56h30v146h30V366h30v56    h30v-56h90.492V146H421z M80.371,275.789c-11.022,0-19.99-8.967-19.99-19.989s8.967-19.99,19.99-19.99    c11.022,0,19.989,8.967,19.989,19.99C100.36,266.822,91.393,275.789,80.371,275.789z M150.224,275.789    c-11.022,0-19.99-8.967-19.99-19.989s8.967-19.99,19.99-19.99c11.022,0,19.989,8.967,19.989,19.99    C170.213,266.822,161.246,275.789,150.224,275.789z M391,146H121V30h190v80h80V146z" fill="#7eab14"/>
	</g>
</g>
<g>
	<g>
		<rect x="271" y="452" width="30" height="60" fill="#7eab14"/>
	</g>
</g>
<g>
	<g>
		<rect x="391" y="452" width="30" height="60" fill="#7eab14"/>
	</g>
</g>
<g>
	<g>
		<rect x="151" y="442" width="30" height="70" fill="#7eab14"/>
	</g>
</g>
<g>
</g>
<g>
</g>
<g>
</g>
<g>
</g>
<g>
</g>
<g>
</g>
<g>
</g>
<g>
</g>
<g>
</g>
<g>
</g>
<g>
</g>
<g>
</g>
<g>
</g>
<g>
</g>
<g>
</g>
</svg>
